# xmcd
#
# Track frame offsets:
#	150
#	15976
#	34337
#	46758
#	61076
#	73165
#	90675
#	98962
#	112812
#	132445
#	150943
#	167116
#	179902
#	191348
#
# Disc length: 2761 seconds
# Revision: 3
# Processed by: cddbd v1.5.2PL0 Copyright (c) Steve Scherf et al.
# Submitted via: dBpowerAMP V12.0
#
DISCID=b20ac70e
DTITLE=Cherryholmes - Cherryholmes
DYEAR=2005
DGENRE=Country
TTITLE0=How Long?
TTITLE1=Workin' Man (Nowhere To Go)
TTITLE2=Will I Be The Winner?
TTITLE3=Tallahassee
TTITLE4=Heart As Cold As Stone
TTITLE5=Red Satin Dress
TTITLE6=Makin' Time
TTITLE7=Brand New Heartache
TTITLE8=Shelly In The Heather/Linda's Reel (Medley)
TTITLE9=He Goes To Church
TTITLE10=Workin' Girl Blues
TTITLE11=Don't Fall In Love
TTITLE12=Coastline
TTITLE13=No One To Sing For Me
EXTD=
EXTT0=
EXTT1=
EXTT2=
EXTT3=
EXTT4=
EXTT5=
EXTT6=
EXTT7=
EXTT8=
EXTT9=
EXTT10=
EXTT11=
EXTT12=
EXTT13=
PLAYORDER=
